<!--?xml version="1.0" encoding="utf-8"?-->
<!-- Generator: Adobe Illustrator 19.1.1, SVG Export Plug-In . SVG Version: 6.00 Build 0)  -->
<svg version="1.1" id="_x31_0" xmlns="http://www.w3.org/2000/svg" xmlns:xlink="http://www.w3.org/1999/xlink" x="0px" y="0px" viewBox="0 0 512 512" style="width: 64px; height: 64px; opacity: 1;" xml:space="preserve">
<style type="text/css">
	.st0{fill:#374149;}
</style>
<g>
	<path class="st0" d="M256,512c141.386,0,256-114.617,256-256C512,114.61,397.386,0,256,0S0,114.61,0,256
		C0,397.383,114.614,512,256,512z M256,64c105.867,0,192,86.133,192,192s-86.133,192-192,192S64,361.867,64,256S150.133,64,256,64z" style="fill: rgb(255, 255, 255);"></path>
	<polygon class="st0" points="341.328,246.274 341.328,227.195 341.386,220.062 341.328,220.086 341.328,219.914 255.996,254.946 
		194.218,229.582 170.832,219.914 170.832,219.981 170.672,219.914 170.672,246.274 256,281.313 	" style="fill: rgb(255, 255, 255);"></polygon>
	<path class="st0" d="M162.047,369.805h187.906c19.356,0,35.098-15.75,35.098-35.102V177.351c0-19.382-15.742-35.156-35.098-35.156
		H162.047c-19.356,0-35.098,15.774-35.098,35.156v157.352C126.95,354.054,142.691,369.805,162.047,369.805z M162.278,177.523
		l187.445-0.172l0.23,156.578v0.547l-187.609,0.226h-0.066V177.523z" style="fill: rgb(255, 255, 255);"></path>
</g>
</svg>
